# xmcd CD database file
#
# Track frame offsets:
#	183
#	19658
#	31433
#	47283
#	59808
#	77508
#	92433
#	105633
#	117808
#	158008
#	176158
#	186620
#	205308
#	216983
#	229158
#	243883
#	257008
#	267758
#	276558
#	286233
#
# Disc length: 4218 seconds
#
# Revision: 4
# Processed by: cddbd v1.5.1PL0 Copyright (c) Steve Scherf et al.
# Submitted via: CDex 1.51
#
DISCID=1d107814
DTITLE=Green Day - Green Daze
DYEAR=1900
DGENRE=Rock
TTITLE0=Welcome To Paradise
TTITLE1=Chump
TTITLE2=Long View
TTITLE3=Burnout
TTITLE4=Christie Road
TTITLE5=2000 Light Years Away
TTITLE6=Basket Case
TTITLE7=She
TTITLE8=Paper Lanterns
TTITLE9=Welcome To Paradise
TTITLE10=One Of My Lies
TTITLE11=Going To Pasalacqua
TTITLE12=Chump
TTITLE13=At The Library
TTITLE14=2000 Light Years Away
TTITLE15=Who Wrote Holden Caulfield?
TTITLE16=Knowledge
TTITLE17=Disappearing Boy
TTITLE18=She
TTITLE19=Road To Acceptance
EXTD=
EXTT0=
EXTT1=
EXTT2=
EXTT3=
EXTT4=
EXTT5=
EXTT6=
EXTT7=
EXTT8=
EXTT9=
EXTT10=
EXTT11=
EXTT12=
EXTT13=
EXTT14=
EXTT15=
EXTT16=
EXTT17=
EXTT18=
EXTT19=
PLAYORDER=
